<svg width="48" height="48" viewBox="0 0 48 48" fill="none" xmlns="http://www.w3.org/2000/svg">
<g clip-path="url(#clip0_7454_3200)">
<path d="M5.60002 0.617004H5.45545C4.17227 0.617004 2.94201 1.12631 2.03396 2.03341C1.12591 2.94051 0.61661 4.17172 0.617555 5.45489V17.5496H13.5183V0.617004H5.60002Z" fill="#8CDAF5"/>
<path d="M5.59998 0.617004C8.26176 0.769133 10.3311 2.99059 10.2933 5.65616V45.77C10.2961 46.6592 11.0161 47.3801 11.9062 47.383H36.0957C36.9848 47.3801 37.7058 46.6601 37.7086 45.77V5.4549C37.7068 2.78366 35.542 0.618894 32.8708 0.617004C32.8698 0.617004 5.59998 0.617004 5.59998 0.617004Z" fill="#8CDAF5"/>
<path d="M8.01892 0.617004C10.6807 0.769133 12.75 2.99059 12.7113 5.65616V45.77C12.7141 46.6592 13.4341 47.3801 14.3242 47.383H37.7077C38.5968 47.3801 39.3178 46.6601 39.3206 45.77V5.4549C39.3188 2.78366 37.154 0.618894 34.4828 0.617004C34.4818 0.617004 8.01892 0.617004 8.01892 0.617004Z" fill="#DEF6FC"/>
<path d="M24.8061 17.5496C28.3688 17.5496 31.2569 14.6615 31.2569 11.0988C31.2569 7.53609 28.3688 4.64795 24.8061 4.64795C21.2434 4.64795 18.3552 7.53609 18.3552 11.0988C18.3552 14.6615 21.2434 17.5496 24.8061 17.5496Z" fill="#8CDAF5"/>
<path d="M24.806 12.7117C26.142 12.7117 27.225 11.6287 27.225 10.2928C27.225 8.95684 26.142 7.87384 24.806 7.87384C23.4701 7.87384 22.3871 8.95684 22.3871 10.2928C22.3871 11.6287 23.4701 12.7117 24.806 12.7117Z" fill="#DEF6FC"/>
<path d="M21.5811 15.469V16.6784C23.5748 17.8397 26.0382 17.8397 28.0319 16.6784V15.469C27.894 13.822 26.4558 12.5918 24.807 12.7118C23.9754 12.7004 23.1685 12.9896 22.5335 13.5263C21.9411 13.9987 21.5924 14.7121 21.5811 15.469Z" fill="#8CDAF5"/>
<path d="M25.613 23.1936V31.2565C25.613 32.1475 24.8911 32.8694 24 32.8694C23.109 32.8694 22.3871 32.1475 22.3871 31.2565V23.1936C22.3899 22.3045 23.1099 21.5835 24 21.5807C24.8882 21.5873 25.6063 22.3054 25.613 23.1936Z" fill="#8CDAF5"/>
<path d="M45.7705 19.9686V34.4822L25.6129 30.4503V23.9995L45.7705 19.9686Z" fill="#8CDAF5"/>
<path d="M47.3835 19.1617V35.2883C47.3835 36.1793 46.6616 36.9012 45.7705 36.9012C44.8795 36.9012 44.1576 36.1793 44.1576 35.2883V19.1617C44.1604 18.2725 44.8804 17.5515 45.7705 17.5487C46.6587 17.5553 47.3769 18.2734 47.3835 19.1617Z" fill="#8CDAF5"/>
<path d="M12.7113 45.77V3.84195C12.7065 2.0627 11.2656 0.621729 9.48633 0.617004H7.06738C7.95464 0.617004 10.2923 2.95563 10.2923 3.84195V45.77C10.2952 46.6592 11.0152 47.3801 11.9053 47.383H14.3242C13.4351 47.3801 12.7141 46.6601 12.7113 45.77Z" fill="white"/>
<path d="M7.87342 0.617006H5.45447C4.17129 0.617006 2.94009 1.12631 2.03298 2.03341C1.12588 2.94052 0.615634 4.17172 0.616578 5.4549V17.5496H3.03552V5.4549C3.03552 4.17172 3.54483 2.94146 4.45193 2.03341C5.35903 1.12536 6.59024 0.616061 7.87342 0.617006Z" fill="white"/>
<path d="M10.9103 15.3187H9.67529V45.5811H10.9103V15.3187Z" fill="white"/>
<path d="M10.2942 39.9371C10.2498 39.9352 10.2063 39.9314 10.1628 39.9239C10.1307 39.9182 10.1005 39.9078 10.0712 39.8936L10.0598 39.888L10.0476 39.8842C10.0135 39.8729 9.98236 39.8568 9.95307 39.8379L9.84724 39.7528C9.67716 39.5752 9.62802 39.3144 9.72251 39.0857C9.81889 38.8542 10.0428 38.704 10.2932 38.7031C10.3717 38.704 10.4501 38.721 10.5247 38.7522C10.7251 38.8297 10.8658 38.996 10.9074 39.2001C10.949 39.4042 10.8838 39.6121 10.7336 39.7566C10.6154 39.8691 10.4586 39.9333 10.2942 39.9371Z" fill="#0092D0"/>
<path d="M11.9053 48C10.6769 47.9991 9.67624 46.9984 9.67529 45.77V42.5451C9.67529 42.2049 9.95215 41.9281 10.2923 41.9281C10.6325 41.9281 10.9093 42.2049 10.9093 42.5451V45.77C10.9103 46.3181 11.3563 46.765 11.9043 46.765H37.7067C38.2548 46.765 38.7017 46.3181 38.7017 45.77V33.9276L36.7108 33.4948V34.1912C36.7117 34.8716 36.4084 35.5056 35.8774 35.9308C35.4843 36.2464 34.9901 36.4202 34.4855 36.4202C34.3221 36.4202 34.1586 36.4023 33.9989 36.3664L29.9689 35.4725C28.955 35.2495 28.2199 34.3349 28.2199 33.2974V31.6494L26.2262 31.2157L26.2101 31.4331C26.1459 32.3222 25.5591 33.0819 24.7153 33.3692C24.4857 33.4476 24.2466 33.4863 24.0047 33.4863C23.3735 33.4863 22.7707 33.2151 22.3511 32.7436L22.2944 32.6803H16.7432C16.403 32.6803 16.1261 32.4035 16.1261 32.0633C16.1261 31.7231 16.403 31.4463 16.7432 31.4463H21.77V28.6494H16.7432C16.403 28.6494 16.1261 28.3725 16.1261 28.0324C16.1261 27.6922 16.403 27.4153 16.7432 27.4153H21.77V24.6184H16.7432C16.403 24.6184 16.1261 24.3416 16.1261 24.0014C16.1261 23.6613 16.403 23.3844 16.7432 23.3844H21.771L21.77 23.1945C21.7672 21.9926 22.7055 21.0136 23.9064 20.9664C23.9367 20.9655 23.966 20.9645 23.9953 20.9645C25.1499 20.9645 26.1232 21.8669 26.2111 23.0187L26.2271 23.2351L38.7017 20.5232V5.45491C38.6989 3.13046 36.8053 1.23687 34.4808 1.23404H8.85512L9.18584 1.55814C10.28 2.6306 10.9084 4.12449 10.9103 5.65617V36.0933C10.9103 36.4335 10.6334 36.7103 10.2933 36.7103C9.9531 36.7103 9.67624 36.4335 9.67624 36.0933V18.1667H0.616534C0.451177 18.1667 0.296213 18.1024 0.17999 17.9862C0.0637674 17.869 -0.000485814 17.7141 -0.000485814 17.5496V5.45491C-0.00332051 2.45485 2.43641 0.00944901 5.43647 0.0037796H5.46482L5.47805 0H34.4818C37.4856 0.0037796 39.9329 2.45013 39.9367 5.45491V20.2539L43.5396 19.4706V19.1626C43.5405 17.9342 44.5412 16.9336 45.7695 16.9326C46.9979 16.9336 47.9976 17.9342 47.9995 19.1626V35.2883C47.9995 36.5176 46.9989 37.5182 45.7695 37.5182C44.5402 37.5182 43.5396 36.5176 43.5396 35.2883V34.9802L39.9367 34.1969V45.77C39.9357 46.9984 38.9351 47.9991 37.7067 48H11.9053ZM45.7705 18.1667C45.2215 18.1667 44.7755 18.6136 44.7755 19.1616V35.2883C44.7755 35.8372 45.2225 36.2832 45.7705 36.2832C46.3185 36.2832 46.7655 35.8363 46.7655 35.2883V19.1616C46.7655 18.6126 46.3195 18.1667 45.7705 18.1667ZM29.4549 33.2964C29.4577 33.7698 29.7828 34.1685 30.2439 34.2678L34.2692 35.1607C34.34 35.1777 34.4166 35.1872 34.4931 35.1872C34.7161 35.1872 34.9344 35.1097 35.1063 34.9679C35.3426 34.779 35.4786 34.4945 35.4767 34.1903V33.2265L29.4549 31.9178V33.2964ZM26.23 24.4975V29.9524L43.5405 33.7159V20.7349L26.23 24.4975ZM24 22.1985C23.451 22.1985 23.005 22.6455 23.005 23.1935V31.2564C23.005 31.8054 23.4519 32.2513 24 32.2513C24.549 32.2513 24.995 31.8044 24.995 31.2564V23.1935C24.995 22.6445 24.549 22.1985 24 22.1985ZM5.45537 1.2331C4.35173 1.2331 3.30761 1.65641 2.51484 2.42556C1.70034 3.21644 1.23355 4.32009 1.2345 5.45491V16.9317H9.67529V5.65712C9.71404 3.3251 7.91873 1.38144 5.58671 1.23498C5.53852 1.2331 5.49695 1.2331 5.45537 1.2331Z" fill="#0092D0"/>
<path d="M24.806 18.1667C20.9083 18.1667 17.7382 14.9956 17.7382 11.0988C17.7382 7.20203 20.9092 4.03094 24.806 4.03094C28.7028 4.03094 31.8739 7.20203 31.8739 11.0988C31.8701 14.9918 28.699 18.1619 24.806 18.1667ZM24.5953 13.3184C23.3754 13.3184 22.3455 14.233 22.2 15.4463L22.199 15.4576V16.309L22.3058 16.3609C23.0816 16.7342 23.9462 16.9317 24.807 16.9317C25.6678 16.9317 26.5323 16.7342 27.3081 16.3609L27.4149 16.309V15.469C27.4035 14.8869 27.1352 14.3511 26.6798 13.9959C26.1752 13.5669 25.5251 13.3288 24.8551 13.3288H24.8145C24.7418 13.3222 24.6681 13.3184 24.5953 13.3184ZM24.807 7.24928C25.6167 7.24928 26.3774 7.56393 26.9509 8.13559C28.1311 9.31199 28.1387 11.2339 26.9679 12.4198L26.7998 12.5908L27.0048 12.7146C27.1749 12.8176 27.3383 12.9347 27.4895 13.0632C28.1113 13.5829 28.5081 14.3105 28.6074 15.1127L28.6546 15.4964L28.9286 15.2233C30.7948 13.3599 31.1775 10.4638 29.8603 8.18C28.8218 6.37997 26.8857 5.26121 24.8079 5.26121C24.2986 5.26121 23.7902 5.32829 23.297 5.46058C20.7505 6.14374 18.9731 8.46158 18.975 11.0988C18.9741 12.6352 19.5977 14.1385 20.6872 15.2223L20.9565 15.4898L21.0085 15.1137C21.1464 14.1045 21.7294 13.2286 22.6063 12.7108L22.8142 12.588L22.645 12.416C21.4762 11.2283 21.4875 9.30632 22.6696 8.13181C23.2394 7.56298 23.9991 7.24928 24.807 7.24928ZM24.806 8.49087C23.8129 8.49087 23.0041 9.29877 23.0041 10.2928C23.005 11.2849 23.8129 12.0928 24.806 12.0947C25.8 12.0947 26.6079 11.2868 26.6079 10.2928C26.6079 9.29877 25.8 8.49087 24.806 8.49087Z" fill="#0092D0"/>
<path d="M16.7431 36.7122C16.403 36.7122 16.1261 36.4354 16.1261 36.0952C16.1261 35.7551 16.403 35.4782 16.7431 35.4782H26.4189C26.7591 35.4782 27.0359 35.7551 27.0359 36.0952C27.0359 36.4354 26.7591 36.7122 26.4189 36.7122H16.7431Z" fill="#0092D0"/>
<path d="M16.7431 40.7433C16.403 40.7433 16.1261 40.4664 16.1261 40.1262C16.1261 39.7861 16.403 39.5092 16.7431 39.5092H32.8697C33.2099 39.5092 33.4868 39.7861 33.4868 40.1262C33.4868 40.4664 33.2099 40.7433 32.8697 40.7433H16.7431Z" fill="#0092D0"/>
</g>
<defs>
<clipPath id="clip0_7454_3200">
<rect width="48.0009" height="48" fill="white" transform="translate(-0.000488281)"/>
</clipPath>
</defs>
</svg>
