<svg width="48" height="48" viewBox="0 0 48 48" fill="none" xmlns="http://www.w3.org/2000/svg">
<path fill-rule="evenodd" clip-rule="evenodd" d="M1.37634 16.6044V45.9439C1.37634 46.2548 1.63052 46.5118 1.94328 46.5118H34.1105C34.4233 46.5118 34.6775 46.2548 34.6775 45.9439V42.5329L5.77769 4.49854H1.94328C1.63052 4.49854 1.37634 4.75271 1.37634 5.06641V16.6044Z" fill="#CDEFFA"/>
<path fill-rule="evenodd" clip-rule="evenodd" d="M5.77771 4.49861V41.9651C5.77771 42.2759 6.03189 42.5329 6.34465 42.5329H15.3684H34.6775H38.5138C38.8237 42.5329 39.0807 42.2759 39.0807 41.9651C39.0807 22.4958 39.0807 28.783 39.0807 7.57231L39.0779 7.22176C39.0779 7.1679 39.0722 7.13105 39.0533 7.09326H34.4668C33.2119 7.09326 32.1877 6.06806 32.1877 4.8142L32.1933 0.549006C32.148 0.527273 32.1055 0.519714 32.0459 0.519714H31.6207H6.34465C6.03189 0.519714 5.77771 0.773888 5.77771 1.08759V4.49861Z" fill="#DEF6FC"/>
<path fill-rule="evenodd" clip-rule="evenodd" d="M32.1924 0.548889L32.1868 4.81409C32.1868 6.067 33.212 7.09314 34.4659 7.09314H39.0543C39.0165 7.0185 38.9286 6.95141 38.7576 6.78511L32.5591 0.867314C32.3663 0.683062 32.2784 0.591409 32.1924 0.548889Z" fill="#8CDAF5"/>
<path fill-rule="evenodd" clip-rule="evenodd" d="M28.3268 28.8633C32.5836 24.6056 39.4804 24.6056 43.7372 28.8633C47.9911 33.1237 47.9911 40.0271 43.7372 44.2866C39.4804 48.5442 32.5836 48.5442 28.3268 44.2866C24.0729 40.0271 24.0729 33.1237 28.3268 28.8633Z" fill="#8CDAF5"/>
<path fill-rule="evenodd" clip-rule="evenodd" d="M40.0899 28.8633C44.3439 33.1237 44.3439 40.027 40.0899 44.2866C38.7009 45.6765 37.0294 46.6138 35.2605 47.0957C34.9128 47.1893 34.5623 47.2667 34.2089 47.3291C35.7689 47.5918 37.3743 47.5133 38.9069 47.0957C40.6758 46.6138 42.3473 45.6765 43.7363 44.2866C45.6979 42.3241 46.7543 39.7965 46.9093 37.2283C46.9338 36.7918 46.9338 36.3552 46.9093 35.9215C46.7543 33.3533 45.697 30.8258 43.7363 28.8633C42.1895 27.3156 40.2959 26.33 38.305 25.9067C36.9566 25.6204 35.5657 25.593 34.2089 25.8207C36.3632 26.1855 38.4288 27.2003 40.0899 28.8633Z" fill="#54C3EB"/>
<path d="M11.3318 22.716C11.0455 22.716 10.8121 22.4826 10.8121 22.1963C10.8121 21.91 11.0455 21.6766 11.3318 21.6766H34.3704C34.6567 21.6766 34.8901 21.91 34.8901 22.1963C34.8901 22.4826 34.6567 22.716 34.3704 22.716H11.3318Z" fill="#0092D0"/>
<path d="M17.0428 18.6613C20.6055 18.6613 23.4936 15.7732 23.4936 12.2106C23.4936 8.64797 20.6055 5.75989 17.0428 5.75989C13.4801 5.75989 10.5919 8.64797 10.5919 12.2106C10.5919 15.7732 13.4801 18.6613 17.0428 18.6613Z" fill="#8CDAF5"/>
<path d="M17.0428 13.8235C18.3788 13.8235 19.4618 12.7405 19.4618 11.4046C19.4618 10.0686 18.3788 8.98566 17.0428 8.98566C15.7069 8.98566 14.6239 10.0686 14.6239 11.4046C14.6239 12.7405 15.7069 13.8235 17.0428 13.8235Z" fill="#DEF6FC"/>
<path d="M17.0428 19.2783C13.1451 19.2783 9.97498 16.1073 9.97498 12.2106C9.97498 8.31391 13.1461 5.14288 17.0428 5.14288C20.9396 5.14288 24.1107 8.31391 24.1107 12.2106C24.1069 16.1035 20.9358 19.2736 17.0428 19.2783ZM16.8321 14.4301C15.6123 14.4301 14.5823 15.3448 14.4368 16.558L14.4359 16.5693V17.4207L14.5426 17.4726C15.3184 17.8459 16.183 18.0434 17.0438 18.0434C17.9046 18.0434 18.7692 17.8459 19.5449 17.4726L19.6517 17.4207V16.5807C19.6404 15.9986 19.372 15.4629 18.9166 15.1076C18.412 14.6786 17.7619 14.4405 17.092 14.4405H17.0513C16.9786 14.4339 16.9049 14.4301 16.8321 14.4301ZM17.0438 8.36115C17.8536 8.36115 18.6142 8.6758 19.1878 9.24745C20.3679 10.4238 20.3755 12.3457 19.2048 13.5315L19.0366 13.7026L19.2416 13.8263C19.4117 13.9293 19.5752 14.0465 19.7263 14.175C20.3481 14.6947 20.745 15.4223 20.8442 16.2245L20.8914 16.6081L21.1654 16.335C23.0316 14.4717 23.4143 11.5756 22.0971 9.29186C21.0587 7.49186 19.1226 6.37312 17.0447 6.37312C16.5354 6.37312 16.0271 6.44021 15.5338 6.57249C12.9873 7.25564 11.21 9.57344 11.2119 12.2106C11.2109 13.747 11.8345 15.2503 12.924 16.3341L13.1933 16.6015L13.2453 16.2254C13.3832 15.2163 13.9662 14.3404 14.8431 13.8226L15.051 13.6997L14.8818 13.5278C13.713 12.34 13.7243 10.4182 14.9064 9.24367C15.4762 8.67485 16.2359 8.36115 17.0438 8.36115ZM17.0428 9.60273C16.0497 9.60273 15.2409 10.4106 15.2409 11.4046C15.2419 12.3967 16.0497 13.2046 17.0428 13.2065C18.0369 13.2065 18.8448 12.3986 18.8448 11.4046C18.8448 10.4106 18.0369 9.60273 17.0428 9.60273Z" fill="#0092D0"/>
<path d="M11.3318 35.9973C11.0455 35.9973 10.8121 35.7639 10.8121 35.4776C10.8121 35.1913 11.0455 34.9579 11.3318 34.9579H20.4983C20.7846 34.9579 21.018 35.1913 21.018 35.4776C21.018 35.7639 20.7846 35.9973 20.4983 35.9973H11.3318Z" fill="#0092D0"/>
<path d="M36.0316 48C34.4366 48 32.8964 47.6797 31.4545 47.0476L31.4186 47.0315H1.94427C1.3452 47.0315 0.857634 46.5439 0.857634 45.9439V27.1786C0.857634 26.8923 1.09102 26.6589 1.37733 26.6589C1.66363 26.6589 1.89702 26.8923 1.89702 27.1786V45.9921H29.5401L29.0988 45.6529C28.6972 45.3449 28.3136 45.0085 27.9593 44.6532C27.4915 44.1846 27.0626 43.6734 26.6837 43.132L26.627 43.0517H6.34467C5.74561 43.0517 5.25804 42.5641 5.25804 41.9641V5.01827H1.89608V23.9065C1.89608 24.1928 1.66269 24.4261 1.37638 24.4261C1.09008 24.4261 0.856689 24.1928 0.856689 23.9065V5.06646C0.856689 4.46646 1.34426 3.9789 1.94333 3.9789H5.25709V1.08756C5.25804 0.487559 5.74561 0 6.34467 0H32.045C32.148 0 32.2435 0.016063 32.3361 0.0491339C32.3927 0.0670866 32.4419 0.0907087 32.4882 0.12189C32.612 0.19937 32.7225 0.304252 32.8189 0.397795L32.9162 0.490394C35.1103 2.5852 39.2849 6.57071 39.3784 6.66425L39.3869 6.67276L39.3982 6.6822C39.5277 6.78142 39.6014 6.93165 39.6014 7.09323V16.3257C39.6014 16.612 39.368 16.8454 39.0817 16.8454C38.7954 16.8454 38.562 16.612 38.562 16.3257V7.61291H34.4668C32.9228 7.61291 31.668 6.35717 31.668 4.81417L31.6718 1.03937H6.29743V42.0132H25.9873L25.8484 41.7392C24.2997 38.6712 24.2231 34.9701 25.6433 31.8378L25.7643 31.5704H11.3319C11.0456 31.5704 10.8122 31.337 10.8122 31.0507C10.8122 30.7644 11.0456 30.531 11.3319 30.531H26.3425L26.3983 30.4431C26.8443 29.7411 27.3697 29.0854 27.9583 28.4957C28.3183 28.1357 28.7076 27.7946 29.1149 27.4828L29.558 27.1436H11.3309C11.0446 27.1436 10.8112 26.9102 10.8112 26.6239C10.8112 26.3376 11.0446 26.1042 11.3309 26.1042H31.4478L31.4838 26.0882C32.9181 25.4655 34.4479 25.149 36.0306 25.149C36.8045 25.149 37.5793 25.2274 38.3343 25.3805L38.5611 25.4268V19.594C38.5611 19.3077 38.7944 19.0743 39.0808 19.0743C39.3671 19.0743 39.6004 19.3077 39.6004 19.594V25.715L39.728 25.7584C41.3806 26.3225 42.8528 27.2428 44.1029 28.4939C48.5515 32.949 48.5515 40.1972 44.1029 44.6523C41.9476 46.8113 39.0808 48 36.0316 48ZM36.0316 26.1902C34.567 26.1902 33.1543 26.4869 31.8324 27.0718L31.8249 27.0756L31.8173 27.0794C31.7975 27.0907 31.7748 27.1011 31.7493 27.1106L31.7379 27.1153C30.6069 27.6302 29.5826 28.3417 28.6944 29.2309C24.6502 33.2806 24.6502 39.8702 28.6944 43.92C29.5751 44.8006 30.5899 45.5083 31.7096 46.0224L31.7209 46.0271C31.7464 46.0365 31.7691 46.0469 31.789 46.0583L31.7965 46.062L31.8041 46.0658C33.1345 46.6602 34.5566 46.9606 36.0325 46.9606C38.8039 46.9606 41.4099 45.8806 43.3706 43.92C47.4148 39.8702 47.4148 33.2806 43.3706 29.2309C42.1356 27.9959 40.6058 27.0869 38.9485 26.6041C38.9371 26.6013 38.9296 26.5984 38.9211 26.5965C37.9799 26.3263 37.0105 26.1902 36.0316 26.1902ZM32.7065 4.81512C32.7065 5.78457 33.4954 6.57354 34.4659 6.57354H37.7825L32.7093 1.73102L32.7065 4.81512Z" fill="#0092D0"/>
<path d="M39.4511 40.7102C39.3066 40.7102 39.1724 40.6525 39.0732 40.5476L36.0315 37.3322L32.9899 40.5476C32.8907 40.6525 32.7565 40.7102 32.6119 40.7102C32.4787 40.7102 32.3521 40.6601 32.2548 40.5684C32.0469 40.3719 32.0374 40.0421 32.234 39.8333L35.3153 36.5754L32.234 33.3174C32.0374 33.1095 32.0459 32.7798 32.2548 32.5823C32.3521 32.4906 32.4787 32.4406 32.6119 32.4406C32.7565 32.4406 32.8907 32.4982 32.9899 32.6031L36.0315 35.8185L39.0732 32.6031C39.1724 32.4982 39.3066 32.4406 39.4511 32.4406C39.5844 32.4406 39.711 32.4906 39.8083 32.5823C39.9094 32.6777 39.967 32.8062 39.9708 32.9451C39.9746 33.084 39.9245 33.2163 39.8291 33.3165L36.7478 36.5744L39.8291 39.8324C39.9245 39.9335 39.9746 40.0648 39.9708 40.2037C39.967 40.3426 39.9094 40.4711 39.8083 40.5665C39.711 40.6591 39.5844 40.7102 39.4511 40.7102Z" fill="#0092D0"/>
</svg>
