<svg width="133" height="41" viewBox="0 0 133 41" fill="none" xmlns="http://www.w3.org/2000/svg">
<path d="M0 23.2927V23.2396C0 17.931 4.01735 13.5329 9.60713 13.5329C13.0538 13.5329 15.1177 14.7396 17.0174 16.5091L15.5506 18.0671C13.9509 16.565 12.1709 15.4915 9.57977 15.4915C5.37282 15.4897 2.2261 18.875 2.2261 23.1865V23.2396C2.2261 27.5819 5.40018 30.9877 9.57977 30.9877C12.187 30.9877 13.8971 29.9944 15.7148 28.2807L17.123 29.6477C15.1422 31.6306 12.9708 32.9464 9.52412 32.9464C4.05509 32.9464 0 28.6814 0 23.2927ZM18.8917 19.0175H20.98V22.6386C22.012 20.3305 24.0466 18.67 26.7075 18.7771V21.0032H26.5453C23.4797 21.0032 20.98 23.1725 20.98 27.3573V32.8793H18.8917V19.0175ZM33.848 31.1479C35.7742 31.1479 37.1306 30.3708 38.27 29.1911L39.5727 30.3438C38.1625 31.9018 36.4524 32.9464 33.7905 32.9464C29.9382 32.9464 26.7887 30.0214 26.7887 25.7061C26.7887 21.6835 29.6392 18.4678 33.5207 18.4678C37.673 18.4678 40.0547 21.7375 40.0547 25.8124C40.0547 26.0015 40.0547 26.2158 40.0273 26.5382H28.9063C29.2062 29.4604 31.3757 31.1479 33.848 31.1479ZM37.9437 24.8843C37.7003 22.3628 36.2364 20.2103 33.467 20.2103C31.0522 20.2103 29.2062 22.195 28.9072 24.8843H37.9437ZM41.2847 25.7322V25.6791C41.2847 21.1477 44.622 18.4668 47.9875 18.4668C50.5947 18.4668 52.269 19.8608 53.3613 21.417V13.0502H55.4525V32.623H53.3604V29.8341C52.22 31.4974 50.5645 32.9184 47.9866 32.9184C44.621 32.9184 41.2838 30.2907 41.2838 25.7322H41.2847ZM53.4519 25.7061V25.6521C53.4519 22.4606 50.973 20.3109 48.3771 20.3109C45.6624 20.3109 43.4363 22.2938 43.4363 25.6521V25.7061C43.4363 28.9768 45.7171 31.0678 48.378 31.0678C50.973 31.0678 53.4434 28.8911 53.4434 25.7052H53.4519V25.7061Z" fill="#0092D0"/>
<path d="M57.8672 13.8673H66.0368C68.3714 13.8673 70.2437 14.5662 71.4445 15.7459C71.9227 16.2369 72.2982 16.8165 72.5491 17.4511C72.8009 18.0857 72.9226 18.7631 72.9084 19.4452V19.4983C72.9084 22.6143 70.7371 24.4323 67.7516 24.969L73.5867 32.6369H70.9521L65.4406 25.3427H60.0131V32.6369H57.8681V13.8673H57.8672ZM65.8472 23.4371C68.6977 23.4371 70.7323 21.9909 70.7323 19.5756V19.5225C70.7323 17.2172 68.9411 15.8232 65.8745 15.8232H60.0169V23.438H65.8472V23.4371ZM81.428 31.16C83.3541 31.16 84.7105 30.3838 85.85 29.2041L87.1545 30.3577C85.7425 31.9157 84.0323 32.9593 81.3733 32.9593C77.5182 32.9593 74.3705 30.0344 74.3705 25.7191C74.3705 21.6974 77.221 18.4807 81.1007 18.4807C85.2529 18.4807 87.6347 21.7505 87.6347 25.8263C87.6347 26.0154 87.6347 26.2288 87.6073 26.5512H76.4862C76.7862 29.4734 78.9576 31.1609 81.428 31.1609V31.16ZM85.5255 24.8842C85.2803 22.3627 83.8154 20.2102 81.0469 20.2102C78.6322 20.2102 76.7862 22.195 76.4862 24.8842H85.5255ZM88.6194 28.6143V28.5612C88.6194 25.5859 91.0625 24.0297 94.6195 24.0297C96.0674 24.0176 97.5097 24.2161 98.9 24.6196V24.19C98.9085 21.7235 97.3861 20.4329 94.7544 20.4329C93.2754 20.4413 91.818 20.7805 90.4909 21.4253L89.8683 19.7359C91.4153 19.0398 92.9094 18.5572 94.9704 18.5572C96.9513 18.5572 98.4992 19.0911 99.5037 20.0835C100.508 21.0759 100.969 22.3897 100.969 24.1583V32.6323H98.9085V30.5664C97.9313 31.802 96.3297 32.9286 93.8602 32.9286C91.2257 32.9323 88.6194 31.4563 88.6194 28.6143ZM98.934 27.5427V26.2558C97.604 25.8645 96.2231 25.666 94.8355 25.666C92.2284 25.666 90.7371 26.7916 90.7371 28.454V28.508C90.7371 30.2505 92.3661 31.27 94.2649 31.27C96.8428 31.27 98.934 29.7418 98.934 27.5427ZM102.951 25.7461V25.6921C102.951 21.1607 106.291 18.4807 109.656 18.4807C112.26 18.4807 113.937 19.8738 115.03 21.4299V13.0641H117.118V32.6379H115.03V29.8489C113.889 31.5113 112.234 32.9332 109.656 32.9332C106.291 32.9332 102.951 30.3055 102.951 25.7471V25.7461ZM115.118 25.7182V25.666C115.118 22.4736 112.64 20.3239 110.041 20.3239C107.326 20.3239 105.103 22.3068 105.103 25.666V25.7191C105.103 28.9907 107.383 31.0808 110.041 31.0808C112.653 31.0808 115.111 28.9106 115.111 25.7191H115.118V25.7182ZM119.344 36.3092L120.049 34.6748C120.725 35.0298 121.484 35.206 122.249 35.1827C123.497 35.1827 124.276 34.5397 125.126 32.5829L118.747 18.7836H121.054L126.158 30.3391L130.663 18.7845H132.89L127 33.1019C125.806 35.971 124.449 37.0165 122.332 37.0165C121.292 37.0258 120.267 36.7817 119.344 36.3083V36.3092Z" fill="#8FC564"/>
<path d="M53.1406 11.2722C54.0518 11.2163 54.9564 11.083 55.844 10.8734C56.7458 10.6842 57.6268 10.4615 58.5134 10.2304C60.2849 9.76917 62.0469 9.27065 63.8089 8.76746C67.333 7.7611 70.8523 6.74542 74.398 5.78565C81.4772 3.8689 88.6309 2.14876 95.9261 1.08276C97.7513 0.82185 99.5831 0.599146 101.423 0.439805C103.265 0.2786 105.121 0.190078 106.977 0.178896C108.841 0.163055 110.705 0.253441 112.558 0.450055C114.433 0.6476 116.285 1.01287 118.094 1.54028C119.938 2.07701 121.695 2.86812 123.315 3.89126C124.964 4.93862 126.393 6.29162 127.523 7.87571C128.636 9.47285 129.453 11.2526 129.938 13.133C130.41 14.978 130.658 16.8715 130.677 18.7743H128.361C128.391 17.0541 128.216 15.3358 127.839 13.6558C127.462 12.0037 126.793 10.4298 125.862 9.00787C124.91 7.60269 123.69 6.39319 122.271 5.4474C120.82 4.48017 119.238 3.7198 117.571 3.19053C115.874 2.63983 114.13 2.24287 112.36 2.00619C110.571 1.76951 108.77 1.63626 106.966 1.60551C105.163 1.56824 103.341 1.60551 101.525 1.71919C99.7085 1.83287 97.8956 2.00153 96.0836 2.21305C88.8356 3.08151 81.6639 4.60783 74.5489 6.33728C70.9919 7.20387 67.4452 8.11799 63.8966 9.04421C62.1214 9.5008 60.3462 9.9518 58.5597 10.3795C57.6579 10.5882 56.7703 10.7895 55.8695 10.9554C54.9706 11.138 54.0575 11.2433 53.1406 11.2722Z" fill="#8FC564"/>
<path d="M53.1406 11.2722C53.5311 11.2517 53.9216 11.2097 54.3074 11.1473C54.697 11.0914 55.0828 11.029 55.4705 10.9647L57.789 10.564L62.4204 9.74959C65.5125 9.20447 68.6082 8.68545 71.7125 8.21395C77.922 7.27468 84.1674 6.50406 90.4551 6.1099C93.6104 5.91702 96.7646 5.8229 99.9189 5.88813C103.101 5.9282 106.275 6.21986 109.411 6.75845C111.001 7.038 112.569 7.43495 114.099 7.94838C115.671 8.4674 117.169 9.18677 118.554 10.0878C119.994 11.0457 121.197 12.3149 122.07 13.7983C122.901 15.3321 123.342 17.0411 123.357 18.7817H121.052C121.085 17.4073 120.781 16.0459 120.167 14.8122C119.489 13.584 118.538 12.5236 117.384 11.712C116.169 10.8696 114.848 10.1875 113.455 9.68249C112.027 9.15695 110.562 8.73763 109.07 8.42734C106.037 7.81234 102.96 7.43681 99.867 7.30077C96.7599 7.14236 93.6349 7.1405 90.5117 7.23834C84.2617 7.43868 78.0135 8.01734 71.7917 8.76745C68.6799 9.1439 65.5728 9.56881 62.4685 10.0189L57.8107 10.7019L55.4809 11.0336C55.0922 11.0849 54.7046 11.1361 54.314 11.1809C53.9254 11.2321 53.533 11.2619 53.1406 11.2722Z" fill="#8FC564"/>
<path d="M53.9858 11.399C54.4065 11.371 54.8244 11.3114 55.2357 11.2229C55.6488 11.1427 56.061 11.0542 56.4713 10.962C57.291 10.7803 58.1107 10.5864 58.9285 10.3908L63.8382 9.21107C67.1142 8.43207 70.3967 7.68196 73.6934 6.99614C80.2868 5.6273 86.9406 4.4765 93.6642 3.85591C97.0278 3.53257 100.408 3.39746 103.787 3.45057C107.167 3.52512 110.566 3.82516 113.876 4.64796C115.541 5.04864 117.159 5.6245 118.7 6.36437C118.896 6.45103 119.083 6.55539 119.272 6.66068L119.836 6.97191C120.208 7.19462 120.563 7.43503 120.926 7.66425C121.269 7.92889 121.622 8.17675 121.951 8.45909L122.436 8.89053C122.515 8.96414 122.598 9.03309 122.677 9.11323L122.902 9.34898C124.117 10.5976 125.051 12.0876 125.644 13.7183C126.211 15.3462 126.496 17.057 126.489 18.779H125.486C125.513 17.166 125.266 15.5586 124.756 14.0248C124.226 12.5069 123.378 11.1176 122.267 9.94534L122.062 9.72264C121.989 9.65182 121.913 9.58473 121.837 9.51764L121.386 9.10671C121.082 8.83928 120.748 8.60353 120.43 8.35007C120.112 8.09569 119.755 7.88882 119.405 7.68196L118.871 7.37912C118.696 7.27009 118.516 7.16946 118.33 7.07907C116.85 6.34387 115.292 5.76894 113.687 5.36266C110.469 4.51937 107.117 4.17925 103.773 4.06557C100.417 3.97053 97.0571 4.06464 93.7113 4.34512C87.0085 4.88184 80.3529 5.94784 73.7491 7.23934C70.4467 7.8823 67.1547 8.59421 63.8722 9.33314L58.9465 10.4467C58.1258 10.6312 57.3052 10.8157 56.4817 10.989C56.0704 11.0756 55.6573 11.1567 55.2432 11.234C54.8282 11.3198 54.4084 11.3738 53.9858 11.399Z" fill="#8FC564"/>
</svg>
