<svg width="571" height="571" viewBox="0 0 571 571" fill="none" xmlns="http://www.w3.org/2000/svg">
<path opacity="0.6" d="M285.5 510C409.488 510 510 409.488 510 285.5C510 161.512 409.488 61 285.5 61C161.512 61 61 161.512 61 285.5C61 409.488 161.512 510 285.5 510Z" stroke="url(#paint0_linear_4823_36481)" stroke-miterlimit="10" stroke-linecap="round" stroke-linejoin="round"/>
<path d="M285.5 461C382.426 461 461 382.426 461 285.5C461 188.574 382.426 110 285.5 110C188.574 110 110 188.574 110 285.5C110 382.426 188.574 461 285.5 461Z" stroke="url(#paint1_linear_4823_36481)" stroke-miterlimit="10" stroke-linecap="round" stroke-linejoin="round"/>
<path opacity="0.3" d="M285.5 570C442.625 570 570 442.625 570 285.5C570 128.375 442.625 1 285.5 1C128.375 1 1 128.375 1 285.5C1 442.625 128.375 570 285.5 570Z" stroke="url(#paint2_linear_4823_36481)" stroke-miterlimit="10" stroke-linecap="round" stroke-linejoin="round"/>
<path d="M432.1 170.403V402.171C432.1 411.256 424.739 418.596 415.701 418.596H155.399C146.36 418.596 139 411.256 139 402.171V170.403C139 161.362 146.36 154 155.399 154H415.701C424.762 154 432.1 161.34 432.1 170.403Z" fill="url(#paint3_linear_4823_36481)"/>
<path d="M432.1 170.403V183.226H139V170.403C139 161.362 146.36 154 155.399 154H415.701C424.762 154 432.1 161.34 432.1 170.403Z" fill="url(#paint4_linear_4823_36481)"/>
<path d="M285.561 361.04C326.83 361.04 360.285 327.577 360.285 286.298C360.285 245.019 326.83 211.556 285.561 211.556C244.292 211.556 210.838 245.019 210.838 286.298C210.838 327.577 244.292 361.04 285.561 361.04Z" fill="white"/>
<path d="M285.539 242.482C272.182 242.482 261.309 253.38 261.309 266.762V292.206H309.813V266.762C309.813 253.38 298.917 242.482 285.539 242.482ZM301.736 284.127H269.386V266.762C269.386 257.811 276.634 250.561 285.539 250.561C294.443 250.561 301.736 257.811 301.736 266.762V284.127Z" fill="#003F63"/>
<path d="M295.629 291.49H274.979V314.382H295.629V291.49Z" fill="#003F63"/>
<path d="M316.77 273.476H254.307C252.226 273.476 250.526 275.199 250.526 277.28V326.265C250.526 328.346 252.226 330.069 254.307 330.069H316.77C318.896 330.069 320.574 328.346 320.574 326.265V277.28C320.596 275.221 318.896 273.476 316.77 273.476ZM291.333 306.349C291.333 309.773 288.358 312.48 284.845 312.077C282.339 311.764 280.259 309.817 279.856 307.356C279.431 304.782 280.684 302.477 282.697 301.314V297.107C282.697 295.54 283.973 294.265 285.539 294.265C287.127 294.265 288.425 295.54 288.425 297.107V301.314C290.147 302.321 291.333 304.2 291.333 306.349Z" fill="url(#paint5_linear_4823_36481)"/>
<path opacity="0.1" d="M320.574 277.28V326.287C320.574 328.369 318.873 330.069 316.793 330.069H254.329C252.226 330.069 250.548 328.369 250.548 326.287V323.848C265.404 324.05 287.507 323.401 299.477 318.545C316.614 311.585 316.614 282.651 316.01 273.476H316.815C318.873 273.498 320.574 275.199 320.574 277.28Z" fill="#004E78"/>
<path d="M365.699 169.553C365.699 171.79 363.886 173.603 361.649 173.603C359.412 173.603 357.6 171.79 357.6 169.553C357.6 167.315 359.412 165.502 361.649 165.502C363.886 165.502 365.699 167.315 365.699 169.553Z" fill="white"/>
<path d="M387.668 169.553C387.668 171.79 385.856 173.603 383.619 173.603C381.381 173.603 379.569 171.79 379.569 169.553C379.569 167.315 381.381 165.502 383.619 165.502C385.856 165.502 387.668 167.315 387.668 169.553Z" fill="white"/>
<path d="M409.638 169.553C409.638 171.79 407.826 173.603 405.588 173.603C403.351 173.603 401.539 171.79 401.539 169.553C401.539 167.315 403.351 165.502 405.588 165.502C407.826 165.502 409.638 167.315 409.638 169.553Z" fill="white"/>
<defs>
<linearGradient id="paint0_linear_4823_36481" x1="285.5" y1="61" x2="285.5" y2="510" gradientUnits="userSpaceOnUse">
<stop stop-color="#15C6FF"/>
<stop offset="1" stop-color="#7EDFFF"/>
</linearGradient>
<linearGradient id="paint1_linear_4823_36481" x1="285.5" y1="110" x2="285.5" y2="461" gradientUnits="userSpaceOnUse">
<stop stop-color="#15C6FF"/>
<stop offset="1" stop-color="#7EDFFF"/>
</linearGradient>
<linearGradient id="paint2_linear_4823_36481" x1="285.5" y1="1" x2="285.5" y2="570" gradientUnits="userSpaceOnUse">
<stop stop-color="#15C6FF"/>
<stop offset="1" stop-color="#7EDFFF"/>
</linearGradient>
<linearGradient id="paint3_linear_4823_36481" x1="416.412" y1="190.739" x2="216.18" y2="403.084" gradientUnits="userSpaceOnUse">
<stop stop-color="#7EDBFA"/>
<stop offset="1" stop-color="#47CDF9"/>
</linearGradient>
<linearGradient id="paint4_linear_4823_36481" x1="386.419" y1="145.634" x2="213.898" y2="225.268" gradientUnits="userSpaceOnUse">
<stop stop-color="#0092D0"/>
<stop offset="1" stop-color="#0063AA"/>
</linearGradient>
<linearGradient id="paint5_linear_4823_36481" x1="301.811" y1="279.902" x2="275.62" y2="334.46" gradientUnits="userSpaceOnUse">
<stop stop-color="#84E0FF"/>
<stop offset="1" stop-color="#13C5FF"/>
</linearGradient>
</defs>
</svg>
