<svg width="48" height="48" viewBox="0 0 48 48" fill="none" xmlns="http://www.w3.org/2000/svg">
<path d="M11.7568 0.566895V6.61414H5.70947L11.7568 0.566895Z" fill="#8CDAF5"/>
<path d="M40.4818 2.07871V45.9212C40.479 46.7556 39.8043 47.4302 38.97 47.433H7.22131C6.38697 47.4302 5.71231 46.7556 5.70947 45.9212V6.61414H11.7568V0.566895H38.97C39.8043 0.569729 40.479 1.24437 40.4818 2.07871Z" fill="#DEF6FC"/>
<path d="M26.8751 12.6613V14.1731C21.5837 14.1731 21.5837 11.9054 21.5837 11.9054C21.6101 13.1319 20.6369 14.1467 19.4104 14.1731C19.3792 14.1741 19.3471 14.1741 19.3159 14.1731V12.6613C19.3159 11.6588 19.7128 10.6969 20.4196 9.98539C20.4196 9.98161 20.4233 9.97783 20.4271 9.97783C21.9059 8.5161 24.2851 8.5161 25.7639 9.97783C25.7677 9.97783 25.7715 9.98161 25.7715 9.98539C26.4783 10.6969 26.8751 11.6588 26.8751 12.6613Z" fill="#54C3EB"/>
<path d="M35.1818 36.0954L38.9604 32.3168L43.495 36.8513L39.7173 40.6299L35.1818 36.0954Z" fill="#8CDAF5"/>
<path d="M38.9699 32.315L35.1903 36.0945L33.6785 34.5827L34.8123 33.4488L36.7021 31.5591L37.4581 30.8032L38.9699 32.315Z" fill="#8CDAF5"/>
<path d="M36.7021 31.559L34.8123 33.4487L31.9247 30.5612C32.6078 29.9857 33.2315 29.3423 33.7842 28.6412L36.7021 31.559Z" fill="white"/>
<path d="M29.8988 28.3163C34.3729 24.5651 34.9587 17.8971 31.2075 13.424C29.7968 11.7412 27.8966 10.5393 25.7715 9.98557C25.7715 9.98179 25.7677 9.97801 25.7639 9.97801C24.2851 8.51628 21.9059 8.51628 20.4271 9.97801C20.4233 9.97801 20.4196 9.98179 20.4196 9.98557C14.7615 11.4501 11.3617 17.2243 12.8254 22.8823C14.289 28.5402 20.0643 31.9399 25.7223 30.4763C27.2588 30.0785 28.6865 29.3405 29.8988 28.3163ZM33.7842 28.6413C33.2315 29.3424 32.6078 29.9859 31.9247 30.5613C26.2364 35.3736 17.7238 34.663 12.9114 28.9749C8.099 23.2867 8.80957 14.7752 14.4979 9.96289C20.1862 5.15061 28.6988 5.86116 33.5112 11.5493C37.6612 16.4542 37.7755 23.606 33.7842 28.6413Z" fill="white"/>
<path d="M33.6785 20.2205C33.6832 23.3462 32.298 26.3131 29.8989 28.3162V22.4882L24.6074 20.2205V19.1547C25.9832 18.5481 26.8714 17.1884 26.8752 15.6851V12.6614C26.8752 11.6589 26.4783 10.697 25.7715 9.98553C30.428 11.2025 33.6766 15.4082 33.6785 20.2205Z" fill="#CDEFFA"/>
<path d="M29.8988 22.4882V28.3163C25.969 31.6318 20.2221 31.6318 16.2922 28.3163V22.4882L21.5837 20.2205C21.5865 21.0548 22.2612 21.7295 23.0955 21.7323C23.928 21.7257 24.6007 21.053 24.6074 20.2205L29.8988 22.4882Z" fill="#8CDAF5"/>
<path d="M24.6074 20.2205C24.6007 21.053 23.928 21.7257 23.0955 21.7323C22.2612 21.7295 21.5865 21.0549 21.5837 20.2205L16.2922 22.4882V24.756L21.5837 22.4882C21.5865 23.3226 22.2612 23.9972 23.0955 24C23.928 23.9934 24.6007 23.3207 24.6074 22.4882L29.8988 24.756V22.4882L24.6074 20.2205Z" fill="#54C3EB"/>
<path d="M26.8751 14.1732V15.685C26.8713 17.1884 25.9831 18.548 24.6074 19.1547C23.1815 19.7773 21.5194 19.4627 20.4196 18.361C19.7128 17.6495 19.3159 16.6876 19.3159 15.685V14.1732C20.5424 14.1997 21.5572 13.2265 21.5837 12C21.5846 11.9688 21.5846 11.9367 21.5837 11.9055C21.5837 11.9055 21.5837 14.1732 26.8751 14.1732Z" fill="white"/>
<path d="M24.6074 19.1547V20.2205C24.6008 21.053 23.928 21.7257 23.0956 21.7324C22.2612 21.7295 21.5866 21.0549 21.5837 20.2205V19.1547C22.5494 19.5676 23.6417 19.5676 24.6074 19.1547Z" fill="white"/>
<path d="M21.5837 19.1547V20.2205L16.2923 22.4882V28.3162C11.8181 24.5651 11.2323 17.897 14.9836 13.424C16.3943 11.7411 18.2945 10.5392 20.4196 9.98553C19.7128 10.697 19.3159 11.6589 19.3159 12.6614V15.6851C19.3159 16.6876 19.7128 17.6495 20.4196 18.361C20.756 18.6945 21.15 18.9638 21.5837 19.1547Z" fill="#CDEFFA"/>
<path d="M7.22124 48C6.07507 48 5.14246 47.0674 5.14246 45.9213V6.61417C5.14246 6.46299 5.20104 6.32032 5.30876 6.21354L11.3561 0.166299C11.4629 0.0585827 11.6056 0 11.7568 0H38.9699C40.1161 0 41.0487 0.932598 41.0487 2.07874V30.6142H39.9148V2.07874C39.9148 1.55811 39.4905 1.13386 38.9699 1.13386H12.3237V6.61417C12.3237 6.92693 12.0695 7.1811 11.7568 7.1811H6.27634V45.9213C6.27634 46.4419 6.7006 46.8661 7.22124 46.8661H38.9699C39.4905 46.8661 39.9148 46.4419 39.9148 45.9213V42.3307H41.0487V45.9213C41.0487 47.0674 40.1161 48 38.9699 48H7.22124ZM7.07761 6.04724H11.1898V1.93512L7.07761 6.04724Z" fill="#0092D0"/>
<path d="M23.0993 31.3578C18.1263 31.3578 13.7165 28.0092 12.3766 23.2139C11.5753 20.3481 11.9391 17.3424 13.399 14.7496C14.8589 12.1569 17.2419 10.2879 20.1068 9.48666L20.1503 9.47437L20.1834 9.44414C20.9809 8.71563 22.0146 8.315 23.0946 8.315C24.1765 8.315 25.2121 8.71752 26.0106 9.44792L26.0436 9.47815L26.0871 9.49044C30.8882 10.8256 34.2435 15.2382 34.2454 20.2205C34.2435 25.1953 30.8948 29.6051 26.1041 30.944C25.1205 31.2189 24.1104 31.3578 23.0993 31.3578ZM16.8592 22.8615V28.0366L16.931 28.0942C18.6781 29.4756 20.8675 30.2363 23.0956 30.2363C25.3236 30.2363 27.513 29.4756 29.2601 28.0942L29.3319 28.0375V22.8615L25.0137 21.0104L24.9334 21.1692C24.5819 21.8665 23.8789 22.2993 23.0984 22.2993C22.3151 22.2964 21.6111 21.8637 21.2568 21.1692L21.1765 21.0114L16.8592 22.8615ZM18.6517 11.2564C16.9783 12.0841 15.5732 13.3588 14.5877 14.9443C13.6021 16.5289 13.0806 18.3534 13.0796 20.2205C13.0806 22.5459 13.9017 24.8098 15.3908 26.5947L15.7253 26.9953V22.4882C15.7253 22.2615 15.8605 22.0564 16.0693 21.9676L21.0168 19.8473V19.4977L20.9223 19.4429C19.5843 18.67 18.7509 17.23 18.749 15.6851V12.6615C18.75 12.2618 18.8067 11.863 18.9172 11.4775L19.0353 11.0665L18.6517 11.2564ZM27.2739 11.4775C27.3845 11.8621 27.4412 12.2608 27.4421 12.6615V15.6851C27.4402 17.23 26.6068 18.67 25.2688 19.4429L25.1743 19.4977V19.8473L30.1218 21.9676C30.3307 22.0574 30.4658 22.2615 30.4658 22.4882V26.9944L30.8003 26.5937C32.2894 24.8089 33.1106 22.5449 33.1115 20.2205C33.1106 18.3534 32.589 16.5289 31.6034 14.9443C30.6179 13.3588 29.2128 12.0841 27.5394 11.2564L27.1558 11.0665L27.2739 11.4775ZM22.1507 20.2205C22.1507 20.7411 22.5749 21.1654 23.0956 21.1654C23.3469 21.1654 23.585 21.0652 23.7551 20.8904C23.9346 20.7213 24.0414 20.4747 24.0405 20.2196V19.9257L23.8175 19.9663C23.5803 20.0098 23.3365 20.0315 23.0956 20.0315C22.8537 20.0315 22.6108 20.0098 22.3737 19.9663L22.1507 19.9257V20.2205ZM21.6678 13.5714C21.2691 14.1166 20.688 14.4993 20.0294 14.6504L19.8829 14.6835V15.6851C19.8829 17.4567 21.3239 18.8977 23.0956 18.8977C24.8672 18.8977 26.3082 17.4567 26.3082 15.6851V14.7326L26.1277 14.7251C24.2304 14.6438 22.8206 14.2441 21.939 13.5355L21.785 13.4117L21.6678 13.5714ZM21.5837 11.3386C21.8965 11.3386 22.1507 11.5928 22.1507 11.9056V11.9207L22.1525 11.9358C22.162 11.9963 22.4294 13.4193 26.1098 13.5903L26.3073 13.5997V12.6615C26.3073 10.8898 24.8663 9.44886 23.0946 9.44886C21.3229 9.44886 19.882 10.8898 19.882 12.6615V13.5402L20.1522 13.4108C20.7257 13.1367 21.0716 12.5301 21.0158 11.8971C21.0215 11.589 21.2738 11.3386 21.5837 11.3386Z" fill="#0092D0"/>
<path d="M39.7259 41.1969C39.5747 41.1969 39.432 41.1383 39.3252 41.0306L33.2779 34.9834C33.0568 34.7623 33.0568 34.4023 33.2779 34.1821L34.0111 33.4489L31.8804 31.3182L31.749 31.4202C29.2687 33.3383 26.176 34.3938 23.0408 34.3938C20.0512 34.3938 17.1853 33.4734 14.754 31.733C8.37218 27.1635 6.89814 18.2542 11.4677 11.8725C14.1351 8.14778 18.4656 5.92352 23.0531 5.92352C26.0343 5.92352 28.8964 6.84384 31.3285 8.5862C34.4203 10.8001 36.4641 14.0845 37.0849 17.8356C37.7057 21.5868 36.8279 25.355 34.6149 28.4467L34.5214 28.5771L36.7022 30.7579L37.0575 30.4026C37.1642 30.2958 37.3069 30.2363 37.4581 30.2363C37.6093 30.2363 37.752 30.2949 37.8587 30.4026L43.9061 36.4498C44.1272 36.6709 44.1272 37.0309 43.9061 37.2511L40.1265 41.0306C40.0197 41.1383 39.8771 41.1969 39.7259 41.1969ZM35.9916 36.0945L39.7259 39.8287L42.7042 36.8505L38.97 33.1163L35.9916 36.0945ZM34.4798 34.5827L35.1904 35.2933L38.1687 32.315L37.4581 31.6045L34.4798 34.5827ZM23.0711 7.15754C19.5882 7.16415 16.316 8.52667 13.8573 10.9938C11.3996 13.4608 10.0494 16.7377 10.056 20.2205C10.0513 23.5853 11.3259 26.7799 13.6466 29.2177C16.1289 31.8246 19.4785 33.2608 23.0796 33.2608C26.4358 33.2608 29.6239 31.9862 32.0561 29.6703L32.0797 29.6467C34.6621 27.1938 36.1419 23.7393 36.1353 20.1723C36.122 12.996 30.2721 7.15754 23.0966 7.15754H23.0711ZM33.6766 29.6174C33.3969 29.9311 33.138 30.2023 32.8838 30.446L32.7449 30.5793L34.8124 32.6476L35.899 31.5572L33.8099 29.4681L33.6766 29.6174Z" fill="#0092D0"/>
<path d="M13.8355 37.7953H12.7017V38.9291H13.8355V37.7953Z" fill="#0092D0"/>
<path d="M16.8592 37.7953H15.7253V38.9291H16.8592V37.7953Z" fill="#0092D0"/>
<path d="M32.7336 37.7953H18.749V38.9291H32.7336V37.7953Z" fill="#0092D0"/>
<path d="M35.0013 40.8189H11.1898V41.9528H35.0013V40.8189Z" fill="#0092D0"/>
</svg>
