<svg width="48" height="48" viewBox="0 0 48 48" fill="none" xmlns="http://www.w3.org/2000/svg">
<path d="M10.0425 0.566895V6.61414H3.99512L10.0425 0.566895Z" fill="#8CDAF5"/>
<path d="M38.7675 2.07871V45.9212C38.7646 46.7556 38.09 47.4302 37.2556 47.433H5.50696C4.67261 47.4302 3.99795 46.7556 3.99512 45.9212V6.61414H10.0425V0.566895H37.2556C38.09 0.569729 38.7646 1.24437 38.7675 2.07871Z" fill="#DEF6FC"/>
<path d="M43.3029 42.8976V47.4331H29.6963V42.8976H31.2081H41.791H43.3029Z" fill="#CDEFFA"/>
<path d="M40.2793 28.5355C40.2821 27.7011 40.9568 27.0265 41.7911 27.0237C42.6236 27.0303 43.2964 27.703 43.303 28.5355V37.6063L41.7911 39.8741V42.8977H31.2083V39.8741L28.1846 36.8504V30.8032C28.1874 29.9689 28.8621 29.2942 29.6964 29.2914H31.2083V21.7323C31.2111 20.898 31.8857 20.2234 32.7201 20.2205C33.5526 20.2271 34.2253 20.8999 34.2319 21.7323V27.0237C34.2348 26.1893 34.9094 25.5147 35.7438 25.5119C36.5762 25.5185 37.249 26.1912 37.2556 27.0237V27.7796C37.2585 26.9452 37.9331 26.2706 38.7675 26.2678C39.5999 26.2744 40.2727 26.9471 40.2793 27.7796V28.5355Z" fill="white"/>
<path d="M21.3812 19.4645V29.2913C18.9254 29.2922 16.5367 28.49 14.5779 27.0085V20.2204L19.8693 17.9527C19.8722 18.787 20.5468 19.4617 21.3812 19.4645Z" fill="white"/>
<path d="M28.1846 20.2204V27.0085C26.2259 28.49 23.8371 29.2922 21.3813 29.2913V19.4645C22.2138 19.4579 22.8866 18.7851 22.8932 17.9527L28.1846 20.2204Z" fill="white"/>
<path d="M19.8693 9.63782C19.8958 10.8643 18.9225 11.8791 17.6961 11.9055C17.6649 11.9065 17.6327 11.9065 17.6016 11.9055V10.3937C17.6016 8.30648 19.2939 6.6142 21.3812 6.6142C23.4684 6.6142 25.1608 8.30648 25.1608 10.3937V11.9055C19.8693 11.9055 19.8693 9.63782 19.8693 9.63782Z" fill="#54C3EB"/>
<path d="M21.3812 19.4645C20.5469 19.4617 19.8722 18.7871 19.8694 17.9527V16.8869L21.3812 17.1968C21.9009 17.1959 22.4149 17.091 22.8931 16.8869V17.9527C22.8865 18.7852 22.2137 19.4579 21.3812 19.4645Z" fill="white"/>
<path d="M25.1608 11.9055V13.4173C25.157 14.9207 24.2688 16.2803 22.893 16.887C22.4149 17.091 21.9009 17.1959 21.3812 17.1969L19.8693 16.887L18.7052 16.0933C17.9984 15.3818 17.6016 14.4199 17.6016 13.4173V11.9055C18.828 11.932 19.8429 10.9588 19.8693 9.73231C19.8703 9.70112 19.8703 9.669 19.8693 9.63782C19.8693 9.63782 19.8693 11.9055 25.1608 11.9055Z" fill="white"/>
<path d="M44.8148 7.37003V16.4409C44.812 17.2752 44.1373 17.9499 43.303 17.9527H40.2793L37.2556 20.9763V17.9527H29.6964C28.8621 17.9499 28.1874 17.2752 28.1846 16.4409V7.37003C28.1874 6.5357 28.8621 5.86105 29.6964 5.85822H43.303C44.1373 5.86105 44.812 6.5357 44.8148 7.37003Z" fill="#8CDAF5"/>
<path d="M42.2265 16.4409V7.37003C42.2237 6.5357 41.549 5.86105 40.7147 5.85822H43.411C44.2454 5.86105 44.92 6.5357 44.9229 7.37003V16.4409C44.92 17.2752 44.2454 17.9499 43.411 17.9527H40.7147C41.549 17.9499 42.2237 17.2752 42.2265 16.4409Z" fill="#54C3EB"/>
<path d="M29.6965 48C29.3837 48 29.1295 47.7458 29.1295 47.433V42.8976C29.1295 42.5848 29.3837 42.3307 29.6965 42.3307H30.6414V40.1083L27.784 37.251C27.6782 37.1452 27.6177 36.9996 27.6177 36.8504V30.8031C27.6177 29.657 28.5503 28.7244 29.6965 28.7244H30.6414V21.7322C30.6414 20.5861 31.574 19.6535 32.7201 19.6535C33.8663 19.6535 34.7989 20.5861 34.7989 21.7322V25.1669L35.054 25.0724C35.2818 24.9874 35.5199 24.9448 35.7618 24.9448C36.4742 24.9448 37.1215 25.3067 37.4947 25.9133L37.5911 26.0702L37.7508 25.9776C38.0636 25.7962 38.4179 25.6998 38.7779 25.6998C39.4922 25.6998 40.1433 26.0626 40.5194 26.6693L40.6157 26.8252L40.7745 26.7335C41.0835 26.554 41.4359 26.4585 41.7931 26.4567C42.9383 26.4567 43.8709 27.3893 43.8709 28.5354V37.6063C43.87 37.7168 43.8378 37.8255 43.7755 37.919L42.3581 40.0431V42.3307H43.303C43.6158 42.3307 43.87 42.5848 43.87 42.8976V47.433C43.87 47.7458 43.6158 48 43.303 48H29.6965ZM30.2634 46.8661H42.7361V43.4645H30.2634V46.8661ZM29.6965 29.8582C29.1758 29.8582 28.7516 30.2825 28.7516 30.8031V36.616L31.6089 39.4733C31.7148 39.5792 31.7752 39.7247 31.7752 39.874V42.3307H41.2242V39.874C41.2252 39.7634 41.2573 39.6548 41.3197 39.5612L42.7361 37.4371V28.5354C42.7361 28.0148 42.3118 27.5905 41.7912 27.5905C41.2705 27.5905 40.8463 28.0148 40.8463 28.5354V31.37H39.7124V27.7795C39.7124 27.2589 39.2881 26.8346 38.7675 26.8346C38.2469 26.8346 37.8226 27.2589 37.8226 27.7795V31.37H36.6887V27.0236C36.6887 26.503 36.2645 26.0787 35.7438 26.0787C35.2232 26.0787 34.7989 26.503 34.7989 27.0236V31.37H33.665V21.7322C33.665 21.2116 33.2408 20.7874 32.7201 20.7874C32.1995 20.7874 31.7752 21.2116 31.7752 21.7322V35.1496H30.6414V29.8582H29.6965Z" fill="#0092D0"/>
<path d="M5.507 48C4.36084 48 3.42822 47.0674 3.42822 45.9213V6.61417C3.42822 6.46299 3.48681 6.32032 3.59453 6.21354L9.64189 0.166299C9.74866 0.0585827 9.89134 0 10.0425 0H37.2557C38.4018 0 39.3344 0.932598 39.3344 2.07874V4.15748H38.2006V2.07874C38.2006 1.55811 37.7763 1.13386 37.2557 1.13386H10.6095V6.61417C10.6095 6.92693 10.3553 7.1811 10.0425 7.1811H4.5621V45.9213C4.5621 46.4419 4.98636 46.8661 5.507 46.8661H27.2397V48H5.507ZM5.36338 6.04724H9.47559V1.93512L5.36338 6.04724Z" fill="#0092D0"/>
<path d="M21.3812 29.8583C18.7818 29.8583 16.3118 29.0297 14.2387 27.4621C14.096 27.3553 14.011 27.1853 14.011 27.0086V20.2205C14.011 19.9938 14.1461 19.7887 14.3549 19.6999L19.3024 17.5796V17.23L19.2079 17.1752C17.87 16.4023 17.0366 14.9623 17.0347 13.4174V10.3938C17.0347 7.99754 18.9849 6.0473 21.3812 6.0473C23.7775 6.0473 25.7278 7.99754 25.7278 10.3938V13.4174C25.7259 14.9623 24.8925 16.4023 23.5545 17.1752L23.46 17.23V17.5796L28.4075 19.6999C28.6163 19.7897 28.7514 19.9938 28.7514 20.2205V27.0076C28.7514 27.1853 28.6664 27.3544 28.5247 27.4612C26.4506 29.0297 23.9806 29.8583 21.3812 29.8583ZM23.219 18.9024C23.1217 19.0971 22.9942 19.2728 22.8401 19.4259C22.6266 19.6423 22.362 19.8076 22.0757 19.9049L21.9482 19.9484V28.7093L22.1504 28.6952C24.0874 28.5582 25.9498 27.8958 27.5372 26.7771L27.6176 26.7204V20.5938L23.2994 18.7427L23.219 18.9024ZM15.1449 20.5938V26.7204L15.2252 26.7771C16.8126 27.8949 18.675 28.5582 20.6121 28.6952L20.8143 28.7093V19.9484L20.6886 19.904C20.1916 19.7264 19.7843 19.3701 19.5424 18.9005L19.4621 18.7446L15.1449 20.5938ZM20.4363 17.9528C20.4363 18.4734 20.8606 18.8977 21.3812 18.8977C21.6326 18.8977 21.8707 18.7975 22.0407 18.6227C22.2203 18.4536 22.3261 18.207 22.3261 17.9519V17.658L22.1031 17.6986C21.865 17.7421 21.6222 17.7638 21.3812 17.7638C21.1403 17.7638 20.8965 17.7421 20.6593 17.6986L20.4363 17.658V17.9528ZM19.9535 11.3037C19.5547 11.8489 18.9736 12.2316 18.315 12.3818L18.1685 12.4158V13.4174C18.1685 15.189 19.6095 16.63 21.3812 16.63C23.1529 16.63 24.5939 15.189 24.5939 13.4174V12.4649L24.4134 12.4574C22.517 12.3761 21.1081 11.9764 20.2247 11.2678L20.0706 11.144L19.9535 11.3037ZM19.8694 9.07092C20.1821 9.07092 20.4363 9.3251 20.4363 9.63785V9.65297L20.4382 9.66714C20.4476 9.72762 20.7151 11.1506 24.3954 11.3216L24.5929 11.3311V10.3938C24.5929 8.62211 23.152 7.18116 21.3803 7.18116C19.6086 7.18116 18.1676 8.62211 18.1676 10.3938V11.2725L18.4378 11.1431C19.0114 10.869 19.3572 10.2624 19.3015 9.62935C19.3072 9.32132 19.5594 9.07092 19.8694 9.07092Z" fill="#0092D0"/>
<path d="M11.3653 31.748H10.2314V32.8818H11.3653V31.748Z" fill="#0092D0"/>
<path d="M25.7278 31.748H13.2551V32.8818H25.7278V31.748Z" fill="#0092D0"/>
<path d="M25.7277 34.7716H8.71948V35.9055H25.7277V34.7716Z" fill="#0092D0"/>
<path d="M25.7277 37.7953H8.71948V38.9291H25.7277V37.7953Z" fill="#0092D0"/>
<path d="M37.2557 21.5433C36.9429 21.5433 36.6887 21.2891 36.6887 20.9764V18.5197H29.6965C28.5503 18.5197 27.6177 17.5871 27.6177 16.4409V7.37006C27.6177 6.22392 28.5503 5.29132 29.6965 5.29132H43.303C44.4492 5.29132 45.3818 6.22392 45.3818 7.37006V16.4409C45.3818 17.5871 44.4492 18.5197 43.303 18.5197H40.5137L37.6563 21.377C37.5495 21.4838 37.4068 21.5433 37.2557 21.5433ZM29.6965 6.42518C29.1758 6.42518 28.7516 6.84943 28.7516 7.37006V16.4409C28.7516 16.9616 29.1758 17.3858 29.6965 17.3858H37.2557C37.5684 17.3858 37.8226 17.64 37.8226 17.9527V19.6082L39.8787 17.5521C39.9855 17.4453 40.1282 17.3858 40.2793 17.3858H43.303C43.8237 17.3858 44.2479 16.9616 44.2479 16.4409V7.37006C44.2479 6.84943 43.8237 6.42518 43.303 6.42518H29.6965Z" fill="#0092D0"/>
<path d="M34.9877 14.7403C34.8366 14.7403 34.6939 14.6817 34.5871 14.574L33.2085 13.1954L34.0098 12.3941L34.9877 13.3721L38.9884 9.37146L39.7897 10.1727L35.3874 14.5749C35.2816 14.6808 35.1389 14.7403 34.9877 14.7403Z" fill="#0092D0"/>
</svg>
