<svg width="144" height="144" viewBox="0 0 144 144" fill="none" xmlns="http://www.w3.org/2000/svg">
<path d="M0 8C0 3.58173 3.58172 0 8 0H136C140.418 0 144 3.58172 144 8V136C144 140.418 140.418 144 136 144H8C3.58173 144 0 140.418 0 136V8Z" fill="#F5F5F5"/>
<path d="M83 63.75H78.75L77.7375 60.9125C77.6675 60.7183 77.5394 60.5505 77.3704 60.4319C77.2015 60.3134 77.0001 60.2498 76.7938 60.25H67.2063C66.7844 60.25 66.4062 60.5156 66.2656 60.9125L65.25 63.75H61C59.6187 63.75 58.5 64.8688 58.5 66.25V80.5C58.5 81.8813 59.6187 83 61 83H83C84.3813 83 85.5 81.8813 85.5 80.5V66.25C85.5 64.8688 84.3813 63.75 83 63.75ZM83.25 80.5C83.25 80.6375 83.1375 80.75 83 80.75H61C60.8625 80.75 60.75 80.6375 60.75 80.5V66.25C60.75 66.1125 60.8625 66 61 66H66.8344L67.3687 64.5063L68.0844 62.5H75.9125L76.6281 64.5063L77.1625 66H83C83.1375 66 83.25 66.1125 83.25 66.25V80.5ZM72 68C69.2375 68 67 70.2375 67 73C67 75.7625 69.2375 78 72 78C74.7625 78 77 75.7625 77 73C77 70.2375 74.7625 68 72 68ZM72 76C70.3438 76 69 74.6562 69 73C69 71.3438 70.3438 70 72 70C73.6562 70 75 71.3438 75 73C75 74.6562 73.6562 76 72 76Z" fill="#8C8C8C"/>
<path d="M8 143.5C7.49847 143.5 7.00892 143.451 6.53574 143.357L6.34167 144.338C6.87842 144.444 7.43297 144.5 8 144.5V143.5ZM3.83324 142.237C3.01513 141.689 2.31067 140.985 1.76296 140.167L0.931993 140.723C1.55242 141.65 2.3502 142.448 3.27692 143.068L3.83324 142.237ZM0.642766 137.464C0.549158 136.991 0.5 136.502 0.5 136H-0.5C-0.5 136.567 -0.444406 137.122 -0.338221 137.658L0.642766 137.464ZM0.5 136V134.476H-0.5V136H0.5ZM0.5 131.429V128.381H-0.5V131.429H0.5ZM0.5 125.333V122.286H-0.5V125.333H0.5ZM0.5 119.238V116.19H-0.5V119.238H0.5ZM0.5 113.143V110.095H-0.5V113.143H0.5ZM0.5 107.048V104H-0.5V107.048H0.5ZM0.5 100.952V97.9048H-0.5V100.952H0.5ZM0.5 94.8571V91.8095H-0.5V94.8571H0.5ZM0.5 88.7619V85.7143H-0.5V88.7619H0.5ZM0.5 82.6667V79.6191H-0.5V82.6667H0.5ZM0.5 76.5714V73.5238H-0.5V76.5714H0.5ZM0.5 70.4762V67.4286H-0.5V70.4762H0.5ZM0.5 64.3809V61.3333H-0.5V64.3809H0.5ZM0.5 58.2857V55.2381H-0.5V58.2857H0.5ZM0.5 52.1905V49.1428H-0.5V52.1905H0.5ZM0.5 46.0952V43.0476H-0.5V46.0952H0.5ZM0.5 40V36.9523H-0.5V40H0.5ZM0.5 33.9047V30.8571H-0.5V33.9047H0.5ZM0.5 27.8095V24.7619H-0.5V27.8095H0.5ZM0.5 21.7142V18.6666H-0.5V21.7142H0.5ZM0.5 15.619V12.5714H-0.5V15.619H0.5ZM0.5 9.52374V8H-0.5V9.52374H0.5ZM0.5 8C0.5 7.49847 0.549158 7.00892 0.642766 6.53574L-0.338222 6.34167C-0.444406 6.87842 -0.5 7.43297 -0.5 8H0.5ZM1.76296 3.83324C2.31067 3.01513 3.01513 2.31067 3.83324 1.76296L3.27692 0.931993C2.35019 1.55242 1.55242 2.3502 0.931993 3.27692L1.76296 3.83324ZM6.53574 0.642766C7.00892 0.549158 7.49847 0.5 8 0.5V-0.5C7.43296 -0.5 6.87842 -0.444406 6.34167 -0.338221L6.53574 0.642766ZM8 0.5H9.52381V-0.5H8V0.5ZM12.5714 0.5H15.619V-0.5H12.5714V0.5ZM18.6667 0.5H21.7143V-0.5H18.6667V0.5ZM24.7619 0.5H27.8095V-0.5H24.7619V0.5ZM30.8571 0.5H33.9048V-0.5H30.8571V0.5ZM36.9524 0.5H40V-0.5H36.9524V0.5ZM43.0476 0.5H46.0952V-0.5H43.0476V0.5ZM49.1429 0.5H52.1905V-0.5H49.1429V0.5ZM55.2381 0.5H58.2857V-0.5H55.2381V0.5ZM61.3333 0.5H64.3809V-0.5H61.3333V0.5ZM67.4286 0.5H70.4762V-0.5H67.4286V0.5ZM73.5238 0.5H76.5714V-0.5H73.5238V0.5ZM79.6191 0.5H82.6667V-0.5H79.6191V0.5ZM85.7143 0.5H88.7619V-0.5H85.7143V0.5ZM91.8095 0.5H94.8572V-0.5H91.8095V0.5ZM97.9048 0.5H100.952V-0.5H97.9048V0.5ZM104 0.5H107.048V-0.5H104V0.5ZM110.095 0.5H113.143V-0.5H110.095V0.5ZM116.191 0.5H119.238V-0.5H116.191V0.5ZM122.286 0.5H125.333V-0.5H122.286V0.5ZM128.381 0.5H131.429V-0.5H128.381V0.5ZM134.476 0.5H136V-0.5H134.476V0.5ZM136 0.5C136.502 0.5 136.991 0.549158 137.464 0.642766L137.658 -0.338222C137.122 -0.444406 136.567 -0.5 136 -0.5V0.5ZM140.167 1.76296C140.985 2.31067 141.689 3.01513 142.237 3.83324L143.068 3.27692C142.448 2.35019 141.65 1.55242 140.723 0.931993L140.167 1.76296ZM143.357 6.53574C143.451 7.00892 143.5 7.49847 143.5 8H144.5C144.5 7.43296 144.444 6.87842 144.338 6.34167L143.357 6.53574ZM143.5 8V9.52381H144.5V8H143.5ZM143.5 12.5714V15.619H144.5V12.5714H143.5ZM143.5 18.6667V21.7143H144.5V18.6667H143.5ZM143.5 24.7619V27.8095H144.5V24.7619H143.5ZM143.5 30.8571V33.9048H144.5V30.8571H143.5ZM143.5 36.9524V40H144.5V36.9524H143.5ZM143.5 43.0476V46.0952H144.5V43.0476H143.5ZM143.5 49.1429V52.1905H144.5V49.1429H143.5ZM143.5 55.2381V58.2857H144.5V55.2381H143.5ZM143.5 61.3333V64.3809H144.5V61.3333H143.5ZM143.5 67.4286V70.4762H144.5V67.4286H143.5ZM143.5 73.5238V76.5714H144.5V73.5238H143.5ZM143.5 79.6191V82.6667H144.5V79.6191H143.5ZM143.5 85.7143V88.7619H144.5V85.7143H143.5ZM143.5 91.8095V94.8572H144.5V91.8095H143.5ZM143.5 97.9048V100.952H144.5V97.9048H143.5ZM143.5 104V107.048H144.5V104H143.5ZM143.5 110.095V113.143H144.5V110.095H143.5ZM143.5 116.191V119.238H144.5V116.191H143.5ZM143.5 122.286V125.333H144.5V122.286H143.5ZM143.5 128.381V131.429H144.5V128.381H143.5ZM143.5 134.476V136H144.5V134.476H143.5ZM143.5 136C143.5 136.502 143.451 136.991 143.357 137.464L144.338 137.658C144.444 137.122 144.5 136.567 144.5 136H143.5ZM142.237 140.167C141.689 140.985 140.985 141.689 140.167 142.237L140.723 143.068C141.65 142.448 142.448 141.65 143.068 140.723L142.237 140.167ZM137.464 143.357C136.991 143.451 136.502 143.5 136 143.5V144.5C136.567 144.5 137.122 144.444 137.658 144.338L137.464 143.357ZM136 143.5H134.476V144.5H136V143.5ZM131.429 143.5H128.381V144.5H131.429V143.5ZM125.333 143.5H122.286V144.5H125.333V143.5ZM119.238 143.5H116.19V144.5H119.238V143.5ZM113.143 143.5H110.095V144.5H113.143V143.5ZM107.048 143.5H104V144.5H107.048V143.5ZM100.952 143.5H97.9048V144.5H100.952V143.5ZM94.8571 143.5H91.8095V144.5H94.8571V143.5ZM88.7619 143.5H85.7143V144.5H88.7619V143.5ZM82.6667 143.5H79.6191V144.5H82.6667V143.5ZM76.5714 143.5H73.5238V144.5H76.5714V143.5ZM70.4762 143.5H67.4286V144.5H70.4762V143.5ZM64.3809 143.5H61.3333V144.5H64.3809V143.5ZM58.2857 143.5H55.2381V144.5H58.2857V143.5ZM52.1905 143.5H49.1428V144.5H52.1905V143.5ZM46.0952 143.5H43.0476V144.5H46.0952V143.5ZM40 143.5H36.9523V144.5H40V143.5ZM33.9047 143.5H30.8571V144.5H33.9047V143.5ZM27.8095 143.5H24.7619V144.5H27.8095V143.5ZM21.7142 143.5H18.6666V144.5H21.7142V143.5ZM15.619 143.5H12.5714V144.5H15.619V143.5ZM9.52374 143.5H8V144.5H9.52374V143.5ZM8 143C7.53123 143 7.07417 142.954 6.63278 142.867L6.24464 144.829C6.81317 144.941 7.40022 145 8 145V143ZM4.1114 141.822C3.3476 141.31 2.68979 140.652 2.17845 139.889L0.516509 141.001C1.17329 141.982 2.01773 142.827 2.99876 143.483L4.1114 141.822ZM1.13326 137.367C1.04594 136.926 1 136.469 1 136H-1C-1 136.6 -0.941189 137.187 -0.828715 137.755L1.13326 137.367ZM1 136V134.476H-1V136H1ZM1 131.429V128.381H-1V131.429H1ZM1 125.333V122.286H-1V125.333H1ZM1 119.238V116.19H-1V119.238H1ZM1 113.143V110.095H-1V113.143H1ZM1 107.048V104H-1V107.048H1ZM1 100.952V97.9048H-1V100.952H1ZM1 94.8571V91.8095H-1V94.8571H1ZM1 88.7619V85.7143H-1V88.7619H1ZM1 82.6667V79.6191H-1V82.6667H1ZM1 76.5714V73.5238H-1V76.5714H1ZM1 70.4762V67.4286H-1V70.4762H1ZM1 64.3809V61.3333H-1V64.3809H1ZM1 58.2857V55.2381H-1V58.2857H1ZM1 52.1905V49.1428H-1V52.1905H1ZM1 46.0952V43.0476H-1V46.0952H1ZM1 40V36.9523H-1V40H1ZM1 33.9047V30.8571H-1V33.9047H1ZM1 27.8095V24.7619H-1V27.8095H1ZM1 21.7142V18.6666H-1V21.7142H1ZM1 15.619V12.5714H-1V15.619H1ZM1 9.52374V8H-1V9.52374H1ZM1 8C1 7.53123 1.04594 7.07417 1.13326 6.63278L-0.828715 6.24464C-0.941189 6.81317 -1 7.40022 -1 8H1ZM2.17845 4.1114C2.68979 3.3476 3.3476 2.68979 4.11139 2.17845L2.99876 0.516509C2.01772 1.17329 1.17329 2.01773 0.516509 2.99876L2.17845 4.1114ZM6.63277 1.13326C7.07417 1.04594 7.53122 1 8 1V-1C7.40021 -1 6.81317 -0.941189 6.24464 -0.828715L6.63277 1.13326ZM8 1H9.52381V-1H8V1ZM12.5714 1H15.619V-1H12.5714V1ZM18.6667 1H21.7143V-1H18.6667V1ZM24.7619 1H27.8095V-1H24.7619V1ZM30.8571 1H33.9048V-1H30.8571V1ZM36.9524 1H40V-1H36.9524V1ZM43.0476 1H46.0952V-1H43.0476V1ZM49.1429 1H52.1905V-1H49.1429V1ZM55.2381 1H58.2857V-1H55.2381V1ZM61.3333 1H64.3809V-1H61.3333V1ZM67.4286 1H70.4762V-1H67.4286V1ZM73.5238 1H76.5714V-1H73.5238V1ZM79.6191 1H82.6667V-1H79.6191V1ZM85.7143 1H88.7619V-1H85.7143V1ZM91.8095 1H94.8572V-1H91.8095V1ZM97.9048 1H100.952V-1H97.9048V1ZM104 1H107.048V-1H104V1ZM110.095 1H113.143V-1H110.095V1ZM116.191 1H119.238V-1H116.191V1ZM122.286 1H125.333V-1H122.286V1ZM128.381 1H131.429V-1H128.381V1ZM134.476 1H136V-1H134.476V1ZM136 1C136.469 1 136.926 1.04594 137.367 1.13326L137.755 -0.828715C137.187 -0.941189 136.6 -1 136 -1V1ZM139.889 2.17845C140.652 2.68979 141.31 3.3476 141.822 4.11139L143.483 2.99876C142.827 2.01772 141.982 1.17329 141.001 0.516509L139.889 2.17845ZM142.867 6.63277C142.954 7.07417 143 7.53122 143 8H145C145 7.40021 144.941 6.81317 144.829 6.24464L142.867 6.63277ZM143 8V9.52381H145V8H143ZM143 12.5714V15.619H145V12.5714H143ZM143 18.6667V21.7143H145V18.6667H143ZM143 24.7619V27.8095H145V24.7619H143ZM143 30.8571V33.9048H145V30.8571H143ZM143 36.9524V40H145V36.9524H143ZM143 43.0476V46.0952H145V43.0476H143ZM143 49.1429V52.1905H145V49.1429H143ZM143 55.2381V58.2857H145V55.2381H143ZM143 61.3333V64.3809H145V61.3333H143ZM143 67.4286V70.4762H145V67.4286H143ZM143 73.5238V76.5714H145V73.5238H143ZM143 79.6191V82.6667H145V79.6191H143ZM143 85.7143V88.7619H145V85.7143H143ZM143 91.8095V94.8572H145V91.8095H143ZM143 97.9048V100.952H145V97.9048H143ZM143 104V107.048H145V104H143ZM143 110.095V113.143H145V110.095H143ZM143 116.191V119.238H145V116.191H143ZM143 122.286V125.333H145V122.286H143ZM143 128.381V131.429H145V128.381H143ZM143 134.476V136H145V134.476H143ZM143 136C143 136.469 142.954 136.926 142.867 137.367L144.829 137.755C144.941 137.187 145 136.6 145 136H143ZM141.822 139.889C141.31 140.652 140.652 141.31 139.889 141.822L141.001 143.483C141.982 142.827 142.827 141.982 143.483 141.001L141.822 139.889ZM137.367 142.867C136.926 142.954 136.469 143 136 143V145C136.6 145 137.187 144.941 137.755 144.829L137.367 142.867ZM136 143H134.476V145H136V143ZM131.429 143H128.381V145H131.429V143ZM125.333 143H122.286V145H125.333V143ZM119.238 143H116.19V145H119.238V143ZM113.143 143H110.095V145H113.143V143ZM107.048 143H104V145H107.048V143ZM100.952 143H97.9048V145H100.952V143ZM94.8571 143H91.8095V145H94.8571V143ZM88.7619 143H85.7143V145H88.7619V143ZM82.6667 143H79.6191V145H82.6667V143ZM76.5714 143H73.5238V145H76.5714V143ZM70.4762 143H67.4286V145H70.4762V143ZM64.3809 143H61.3333V145H64.3809V143ZM58.2857 143H55.2381V145H58.2857V143ZM52.1905 143H49.1428V145H52.1905V143ZM46.0952 143H43.0476V145H46.0952V143ZM40 143H36.9523V145H40V143ZM33.9047 143H30.8571V145H33.9047V143ZM27.8095 143H24.7619V145H27.8095V143ZM21.7142 143H18.6666V145H21.7142V143ZM15.619 143H12.5714V145H15.619V143ZM9.52374 143H8V145H9.52374V143Z" fill="#E0E0E0"/>
</svg>
